<?xml version="1.0" standalone="no"?>
<!DOCTYPE svg PUBLIC "-//W3C//DTD SVG 20010904//EN"
 "http://www.w3.org/TR/2001/REC-SVG-20010904/DTD/svg10.dtd">
<svg version="1.0" xmlns="http://www.w3.org/2000/svg"
 width="626.000000pt" height="626.000000pt" viewBox="0 0 626.000000 626.000000"
 preserveAspectRatio="xMidYMid meet">

<g transform="translate(0.000000,626.000000) scale(0.100000,-0.100000)"
fill="#000000" stroke="none">
<path d="M2393 4619 c-10 -10 -13 -116 -13 -462 l0 -449 23 7 c12 4 61 9 108
12 80 5 137 -4 207 -33 9 -4 12 27 12 136 0 129 2 145 21 172 43 60 1 58 1041
58 1065 0 1003 4 1041 -70 16 -33 17 -111 15 -1308 l-3 -1274 -37 -34 -38 -34
-977 0 -977 0 -32 22 c-18 13 -38 33 -43 46 -8 15 -11 269 -11 776 l0 754 23
16 c12 8 -7 1 -42 -17 -54 -26 -66 -38 -73 -64 -12 -46 -38 -57 -120 -49 -60
6 -73 5 -103 -14 l-35 -22 0 -954 c0 -640 3 -962 10 -975 11 -19 37 -19 1398
-19 1066 0 1391 3 1400 12 9 9 12 401 12 1705 l0 1692 -35 -20 c-23 -14 -35
-29 -35 -42 0 -33 -11 -43 -52 -51 -33 -6 -38 -4 -54 22 -24 41 -91 57 -131
31 -28 -18 -30 -18 -61 4 -29 20 -32 26 -27 58 9 52 -24 105 -70 113 -19 4
-35 13 -35 20 0 8 -2 26 -6 42 -4 24 0 32 23 45 38 21 57 94 35 127 -12 18
-24 22 -73 22 -63 0 -68 -4 -43 -31 15 -17 14 -22 -21 -69 -20 -27 -39 -50
-41 -50 -3 0 -24 5 -48 11 -39 10 -46 8 -97 -22 -30 -18 -55 -34 -56 -34 -2
-1 -7 -23 -12 -49 -5 -26 -10 -49 -12 -51 -2 -2 -31 -7 -65 -10 l-61 -7 -12
31 c-18 42 -29 49 -101 67 l-61 16 -39 -27 -40 -27 -50 32 c-56 36 -54 33 -39
92 11 40 9 46 -17 86 l-28 42 -300 0 c-166 0 -488 3 -716 6 -332 5 -418 3
-427 -7z"/>
<path d="M2897 3823 c-4 -3 -7 -71 -7 -150 0 -114 3 -151 17 -176 26 -51 43
-127 43 -194 l0 -62 56 -25 c46 -21 55 -30 51 -46 -3 -13 3 -24 21 -36 23 -15
26 -15 37 0 19 26 38 20 31 -9 -8 -32 19 -46 38 -20 10 14 16 15 34 6 12 -6
22 -18 22 -25 0 -18 43 -36 70 -29 18 5 20 2 15 -19 -5 -20 -1 -26 29 -41 31
-15 36 -15 44 -1 7 13 13 13 36 3 17 -8 25 -18 21 -27 -5 -13 26 -14 242 -8
137 3 347 6 467 7 241 0 242 0 290 -65 20 -27 21 -39 21 -401 0 -362 -1 -374
-21 -401 -11 -15 -32 -37 -46 -47 -31 -23 -81 -27 -754 -53 -443 -17 -453 -17
-484 2 -18 10 -42 32 -54 47 -20 28 -21 38 -21 412 0 211 3 387 8 391 4 4 105
-42 224 -102 252 -126 238 -120 229 -106 -4 6 -50 33 -104 60 -271 137 -578
295 -589 304 -7 6 -21 7 -30 3 -15 -5 -11 -10 20 -22 l37 -15 0 -719 0 -719
23 -10 c14 -7 319 -8 897 -3 l875 8 0 1145 0 1145 -891 3 c-490 1 -894 -1
-897 -5z m1306 -161 c81 -33 168 -116 209 -200 32 -65 33 -69 33 -201 l0 -134
-28 -21 c-26 -19 -30 -19 -55 -5 -26 14 -27 17 -34 140 -7 147 -28 202 -99
263 -73 62 -106 68 -381 64 -242 -3 -243 -3 -294 -30 -28 -15 -65 -43 -82 -62
-58 -67 -66 -90 -71 -234 -5 -117 -8 -135 -25 -148 -28 -20 -70 -17 -91 6 -15
17 -17 35 -13 157 4 124 7 144 31 193 52 108 139 183 255 221 50 16 87 18 322
16 252 -2 268 -3 323 -25z"/>
<path d="M1965 3610 c-3 -5 -37 -19 -75 -30 -68 -20 -130 -60 -130 -84 0 -6
-10 -16 -22 -21 -28 -13 -27 -47 3 -88 11 -15 17 -32 13 -38 -9 -15 26 -38 59
-39 32 0 34 10 7 35 -21 19 -27 50 -11 60 6 3 18 -4 29 -15 l19 -21 -1 37 c-1
34 2 37 39 50 110 38 123 45 135 74 17 41 -2 90 -36 90 -12 0 -26 -4 -29 -10z"/>
<path d="M2325 3471 c-3 -6 7 -9 22 -8 28 2 28 2 31 -71 2 -62 5 -73 18 -68 9
3 17 6 20 6 2 0 11 14 19 31 20 39 12 82 -20 103 -27 18 -80 21 -90 7z"/>
<path d="M2106 3338 c-22 -151 81 -339 223 -409 28 -13 50 -30 51 -37 0 -18
24 -9 28 10 2 10 -13 21 -43 32 -100 38 -198 146 -231 254 -8 26 -14 80 -15
120 0 39 -2 72 -4 72 -1 0 -6 -19 -9 -42z"/>
<path d="M1693 3156 c-128 -140 -200 -384 -204 -691 -7 -468 21 -907 84 -1355
l12 -85 38 -3 37 -3 0 148 c0 166 18 591 29 668 6 48 9 40 58 -175 29 -124 71
-308 94 -410 22 -102 45 -195 50 -207 10 -27 54 -31 84 -10 17 13 17 22 6 143
-17 183 -47 450 -82 734 -17 135 -33 288 -36 341 -5 100 6 161 61 359 42 150
46 134 -39 154 -41 10 -75 21 -75 25 0 16 79 117 109 139 29 21 32 22 62 7 17
-9 32 -15 34 -13 1 2 12 23 25 47 18 35 19 45 8 52 -7 5 -16 9 -21 9 -4 0 -23
22 -42 49 -20 27 -47 57 -61 66 -23 15 -27 15 -37 1 -11 -13 -17 -12 -53 5
-23 11 -51 29 -62 39 -12 11 -23 20 -26 20 -2 0 -26 -24 -53 -54z"/>
<path d="M1656 954 c-5 -12 -14 -15 -35 -11 -28 6 -29 4 -36 -39 -12 -81 -7
-84 97 -79 50 3 93 7 95 9 9 9 -28 64 -66 99 -47 42 -47 42 -55 21z"/>
<path d="M1904 948 c-2 -3 -7 -27 -11 -53 -4 -35 -2 -49 8 -56 18 -11 269 -12
269 0 0 14 -67 69 -113 93 -40 20 -144 32 -153 16z"/>
</g>
</svg>
